<svg width="48" height="48" viewBox="0 0 48 48" fill="none" xmlns="http://www.w3.org/2000/svg">
<g clip-path="url(#clip0_182_211)">
<rect width="48" height="48" fill="#1A43D6"/>
<path d="M7.24408 16.372C7.24408 17.212 7.70008 17.92 8.61208 18.496C9.52408 19.072 10.7241 19.36 12.2121 19.36L17.5 19.36L19.0726 24.36H9.76408V37.36H4.86808V24.36H0V19.36H4.86808C3.26008 18.28 2.45608 16.768 2.45608 14.824C2.45608 13.984 2.74408 13.204 3.32008 12.484C3.92008 11.74 4.72408 11.14 5.73208 10.684C6.76408 10.228 7.91608 10 9.18808 10C11.1801 10 12.8601 10.408 14.2281 11.224C15.6201 12.016 16.7241 13.108 17.5401 14.5L13.9041 17.668C13.3041 16.588 12.6441 15.796 11.9241 15.292C11.2041 14.788 10.3761 14.536 9.44008 14.536C8.76808 14.536 8.22808 14.704 7.82008 15.04C7.43608 15.376 7.24408 15.82 7.24408 16.372Z" fill="white"/>
<path d="M42.3854 37.36H36.8414L32.7733 26.344L28.7054 37.36H23.1614L17.5 19.36L22.8014 19.36L26.4014 31.78L30.6494 19.36H34.8974L39.2533 32.032L42.9613 19.36H48.1454C45.8959 26.3894 44.6348 30.3306 42.3854 37.36Z" fill="white"/>
<path d="M46 19.36H48V24.36H46V19.36Z" fill="white"/>
</g>
<defs>
<clipPath id="clip0_182_211">
<rect width="48" height="48" fill="white"/>
</clipPath>
</defs>
</svg>
